<svg id="Layer_1" data-name="Layer 1" xmlns="http://www.w3.org/2000/svg" viewBox="0 0 395.35 78.1">
  <defs>
    <style>
      .cls-1 {
        fill: #fff;
      }
    </style>
  </defs>
  <title>About</title>
  <g>
    <path class="cls-1" d="M250.52,304h.64v3.16H248L230.8,253.73H197.58L178.91,307.2h-3.27V304h.63l18.67-53.47h38.5Zm-74.88,19.51h19.51L200,309.84h26.79l4.85,13.71h19.52v3.16H229.53L224.68,313H202.11l-4.85,13.71H175.64ZM214,266.33l10.81,31.27H202.32Zm-6.7,28.11h12.55l-5.8-17Z" transform="translate(-175.64 -249.99)"/>
    <path class="cls-1" d="M254.32,326.71V250.57h51.94q12.51.1,19,4.32T333.16,269q.46,7.61-3.22,11.92t-12.18,7.12v.21a24.63,24.63,0,0,1,7.7,2.24,22.7,22.7,0,0,1,5.93,4.06,17.21,17.21,0,0,1,3.72,5.3,14.14,14.14,0,0,1,1.32,5.8q0,9-4.62,13.66A22.27,22.27,0,0,1,320,325.4a88.28,88.28,0,0,1-17.59,1.31Zm3.16-3.16h44.88a81,81,0,0,0,17.06-1.16q6.88-1.36,10.47-5.51t3.37-11.21a11.14,11.14,0,0,0-1.21-5.16,16,16,0,0,0-3.11-4.22,19.44,19.44,0,0,0-4.91-3.35,45,45,0,0,0-10-3v-3.43q9-2.53,12.73-6.38T330,269q-1.15-8.32-6.8-11.73t-16.93-3.56H257.48Zm21.2-55.85h16.93a16.32,16.32,0,0,1,7.94,1.85,5.43,5.43,0,0,1,3,5.27c0,2-1.07,3.68-3.19,5a13.88,13.88,0,0,1-7.73,1.95H278.68Zm0,27.8h20a16,16,0,0,1,9.6,2.26,6.68,6.68,0,0,1,3.32,6.59q.11,3.81-3.64,6.33a15.41,15.41,0,0,1-9.28,2.38h-20Zm3.17-24.63v7.75h13.76a17,17,0,0,0,5.67-1.08,4.17,4.17,0,0,0,2.08-2.72,3.08,3.08,0,0,0-1.71-2.87,15.79,15.79,0,0,0-5.93-1.08Zm0,27.79v11.18h16.82q5.54-.1,7.49-1.48a5.46,5.46,0,0,0,2.27-4,4.55,4.55,0,0,0-2.09-4.21q-2.13-1.38-7.67-1.48Z" transform="translate(-175.64 -249.99)"/>
    <path class="cls-1" d="M425,289.06q0,12.49-5.22,21.31a32.46,32.46,0,0,1-15.11,13.23Q394.76,328,381,328t-23.55-4.45a31.88,31.88,0,0,1-14.89-13.19q-5.07-8.72-5.07-21.33a44.84,44.84,0,0,1,2.91-16.79,31.72,31.72,0,0,1,8.49-12.21,37.08,37.08,0,0,1,13.71-7.52A61.34,61.34,0,0,1,381,250q13.66,0,23.57,4.5a33,33,0,0,1,15.14,13.29Q425,276.57,425,289.06Zm-3.17,0q-.21-11.49-5-19.56a30.58,30.58,0,0,0-14-12.24q-9.15-4.15-21.75-4.16a56.18,56.18,0,0,0-17,2.37,35,35,0,0,0-12.66,6.91,29,29,0,0,0-7.83,11.2A44.46,44.46,0,0,0,340.7,289q.21,11.6,4.88,19.62a29.55,29.55,0,0,0,13.73,12.13q9.07,4.11,21.73,4.11t21.78-4.09a30,30,0,0,0,13.95-12.18Q421.59,300.5,421.8,289.06Zm-59.16.11q0-20,17.93-20,11.39,0,14.92,6a30.41,30.41,0,0,1,3.95,14.06,58.58,58.58,0,0,1-1.42,9.67,13.11,13.11,0,0,1-5.09,7.18c-2.72,2.09-6.85,3.13-12.36,3.13q-10.67,0-14.3-6A26.47,26.47,0,0,1,362.64,289.17Zm3.42.16A22.51,22.51,0,0,0,369,301q3,5,11.76,5,6.75,0,10.12-2.64a11,11,0,0,0,4.22-6,43.41,43.41,0,0,0,1.11-8.06A24.53,24.53,0,0,0,393,277.67q-2.93-4.95-12.26-5Q366.07,272.71,366.06,289.33Z" transform="translate(-175.64 -249.99)"/>
    <path class="cls-1" d="M453.39,250.57v45q-.31,7.69,3,10.71c2.17,2,5.59,3.07,10.23,3.21a14.41,14.41,0,0,0,9.33-3.27q3.75-3.17,3.53-10.65v-45h24.79v44.66q-.17,9.5-3.14,15.16a30.81,30.81,0,0,1-7.54,9.47,32.71,32.71,0,0,1-11.44,5.91,57.74,57.74,0,0,1-15.32,2.32,66.71,66.71,0,0,1-14.27-1.93,37.06,37.06,0,0,1-12.65-5.56,25.41,25.41,0,0,1-8.34-9.76q-2.92-6-2.92-15.56V250.57Zm-21.62,3.16v41.55q.53,9.39,2.9,14.08a23.69,23.69,0,0,0,7.17,8.28A32.55,32.55,0,0,0,453.39,323a61.34,61.34,0,0,0,13.4,1.95,55.49,55.49,0,0,0,14.45-2.37,27.31,27.31,0,0,0,17-13.61q2.58-4.69,2.79-13.71v-41.5H482.61V295.6q.31,8-3.48,12.18t-12.55,4.91q-9.18-.31-12.87-4.43t-3.48-12.66V253.73Z" transform="translate(-175.64 -249.99)"/>
    <path class="cls-1" d="M571,250.57v22.67H550v53.47H525.22V273.24h-21V250.57Zm-63.6,3.16v16.35h21v53.47h18.46V270.08h21V253.73Z" transform="translate(-175.64 -249.99)"/>
  </g>
</svg>
