<svg id="Layer_1" data-name="Layer 1" xmlns="http://www.w3.org/2000/svg" viewBox="0 0 318.57 78.05">
  <defs>
    <style>
      .cls-1 {
        fill: #fff;
      }
    </style>
  </defs>
  <title>Blog</title>
  <g>
    <path class="cls-1" d="M175.64,253.73v-3.16h51.94q12.51.1,19,4.32T254.48,269q.47,7.61-3.22,11.92t-12.18,7.12v.21a24.63,24.63,0,0,1,7.7,2.24,22.7,22.7,0,0,1,5.93,4.06,17.21,17.21,0,0,1,3.72,5.3,14.14,14.14,0,0,1,1.32,5.8q0,9-4.62,13.66a22.27,22.27,0,0,1-11.86,6.07,88.28,88.28,0,0,1-17.59,1.31h-48v-3.16h48a81,81,0,0,0,17.06-1.16q6.88-1.36,10.47-5.51t3.37-11.21a11.14,11.14,0,0,0-1.21-5.16,16,16,0,0,0-3.11-4.22,19.44,19.44,0,0,0-4.91-3.35,45,45,0,0,0-10-3v-3.43q9-2.53,12.73-6.38T251.31,269q-1.16-8.32-6.8-11.73t-16.93-3.56Zm3.16,16.35V307.2h-3.16V270.08ZM200,267.7h16.93a16.32,16.32,0,0,1,7.94,1.85,5.43,5.43,0,0,1,3,5.27c0,2-1.07,3.68-3.19,5a13.88,13.88,0,0,1-7.73,1.95H200Zm0,27.8h20a16,16,0,0,1,9.6,2.26,6.68,6.68,0,0,1,3.32,6.59q.1,3.81-3.64,6.33a15.41,15.41,0,0,1-9.28,2.38H200Zm3.17-24.63v7.75h13.76a17,17,0,0,0,5.67-1.08,4.17,4.17,0,0,0,2.08-2.72A3.08,3.08,0,0,0,223,272a15.79,15.79,0,0,0-5.93-1.08Zm0,27.79v11.18H220q5.53-.1,7.49-1.48a5.46,5.46,0,0,0,2.27-4,4.55,4.55,0,0,0-2.09-4.21q-2.13-1.38-7.67-1.48Z" transform="translate(-175.64 -249.99)"/>
    <path class="cls-1" d="M261.49,326.71V250.57h24.79V304h41.24v22.67Zm3.17-73v69.82h59.69V307.2H283.11V253.73Z" transform="translate(-175.64 -249.99)"/>
    <path class="cls-1" d="M415.48,289.06q0,12.49-5.22,21.31a32.5,32.5,0,0,1-15.11,13.23q-9.88,4.44-23.6,4.43T348,323.58a32,32,0,0,1-14.9-13.19Q328,301.67,328,289.06a45,45,0,0,1,2.9-16.79,31.93,31.93,0,0,1,8.49-12.21,37.24,37.24,0,0,1,13.71-7.52A61.41,61.41,0,0,1,371.55,250q13.65,0,23.57,4.5a33,33,0,0,1,15.14,13.29Q415.48,276.57,415.48,289.06Zm-3.17,0q-.21-11.49-5-19.56a30.58,30.58,0,0,0-14-12.24q-9.15-4.15-21.75-4.16a56.18,56.18,0,0,0-17,2.37,35,35,0,0,0-12.66,6.91,29,29,0,0,0-7.83,11.2A44.23,44.23,0,0,0,331.21,289q.21,11.6,4.87,19.62a29.57,29.57,0,0,0,13.74,12.13q9.07,4.11,21.73,4.11t21.78-4.09a30,30,0,0,0,13.95-12.18Q412.1,300.5,412.31,289.06Zm-59.17.11q0-20,17.93-20,11.4,0,14.93,6A30.41,30.41,0,0,1,390,289.17a58.58,58.58,0,0,1-1.42,9.67,13.16,13.16,0,0,1-5.09,7.18q-4.1,3.14-12.37,3.13-10.65,0-14.29-6A26.48,26.48,0,0,1,353.14,289.17Zm3.43.16A22.6,22.6,0,0,0,359.52,301q3,5,11.76,5,6.75,0,10.13-2.64a11,11,0,0,0,4.22-6,43.41,43.41,0,0,0,1.11-8.06,24.53,24.53,0,0,0-3.19-11.66c-2-3.3-6-5-12.27-5Q356.58,272.71,356.57,289.33Z" transform="translate(-175.64 -249.99)"/>
    <path class="cls-1" d="M494.21,250.57v22.67H470.37a105.44,105.44,0,0,0-11.86.48,30.36,30.36,0,0,0-6.86,1.58,12.68,12.68,0,0,0-5.32,3.85q-2.32,2.75-2.69,9.7.25,6.75,2.69,9.65a11.42,11.42,0,0,0,5.9,3.85,44.47,44.47,0,0,0,7.17,1.32q3.69.38,11,.37v-15.4h23.84v38.07H460.46a55.05,55.05,0,0,1-22.41-4.4,35.49,35.49,0,0,1-15.8-13.21q-5.78-8.81-5.77-21.57a35.89,35.89,0,0,1,3.45-16,32.42,32.42,0,0,1,9.57-11.71,42.36,42.36,0,0,1,14.06-7,60.54,60.54,0,0,1,16.9-2.29ZM491,270.08V253.73H460.46a63.12,63.12,0,0,0-15.82,2.06,35.6,35.6,0,0,0-12.71,6.27,32.14,32.14,0,0,0-8.81,10.65,33.73,33.73,0,0,0-3.48,14.82q-.11,12,5.38,20a33,33,0,0,0,14.77,11.92,55.49,55.49,0,0,0,20.67,4.11H491V291.8h-17.5v15.4h-3.17a93.91,93.91,0,0,1-11.39-.37,55.1,55.1,0,0,1-8.33-1.58,12.51,12.51,0,0,1-6.91-4.9q-2.79-3.8-3.27-11.5.58-8.87,3.59-11.86a19.09,19.09,0,0,1,6.43-4.38,30.16,30.16,0,0,1,7.62-1.87q4.2-.51,12.26-.66Z" transform="translate(-175.64 -249.99)"/>
  </g>
</svg>
