<svg id="Layer_1" data-name="Layer 1" xmlns="http://www.w3.org/2000/svg" viewBox="0 0 460.16 78.1">
  <defs>
    <style>
      .cls-1 {
        fill: #fff;
      }
    </style>
  </defs>
  <title>Forums</title>
  <g>
    <path class="cls-1" d="M175.64,253.73v-3.16H241v3.16Zm21.62,69.82V292.23h26.16v-7.07H197.26V270.08H241v3.16h-40.6V282h26.15v13.28H200.43v31.43H175.64v-3.16ZM178.8,307.2h-3.16V270.08h3.16Z" transform="translate(-175.64 -249.99)"/>
    <path class="cls-1" d="M329,289.06q0,12.49-5.22,21.31a32.46,32.46,0,0,1-15.11,13.23q-9.89,4.44-23.6,4.43t-23.54-4.45a31.9,31.9,0,0,1-14.9-13.19q-5.06-8.72-5.06-21.33a44.84,44.84,0,0,1,2.9-16.79A31.72,31.72,0,0,1,253,260.06a37.16,37.16,0,0,1,13.71-7.52,61.34,61.34,0,0,1,18.4-2.55q13.67,0,23.58,4.5a33,33,0,0,1,15.13,13.29Q329,276.57,329,289.06Zm-3.16,0q-.21-11.49-5-19.56a30.55,30.55,0,0,0-14-12.24q-9.15-4.15-21.76-4.16a56.28,56.28,0,0,0-17,2.37,34.85,34.85,0,0,0-12.65,6.91,28.83,28.83,0,0,0-7.83,11.2A44.22,44.22,0,0,0,244.72,289q.21,11.6,4.88,19.62a29.52,29.52,0,0,0,13.74,12.13q9.06,4.11,21.72,4.11t21.78-4.09a30,30,0,0,0,14-12.18Q325.62,300.5,325.83,289.06Zm-59.17.11q0-20,17.93-20,11.39,0,14.92,6a30.3,30.3,0,0,1,4,14.06,58.49,58.49,0,0,1-1.43,9.67A13.09,13.09,0,0,1,297,306q-4.09,3.14-12.37,3.13-10.65,0-14.29-6A26.39,26.39,0,0,1,266.66,289.17Zm3.43.16A22.5,22.5,0,0,0,273,301q3,5,11.76,5,6.75,0,10.13-2.64a11.07,11.07,0,0,0,4.21-6,41.78,41.78,0,0,0,1.11-8.06,24.42,24.42,0,0,0-3.19-11.66q-2.93-4.95-12.26-5Q270.09,272.71,270.09,289.33Z" transform="translate(-175.64 -249.99)"/>
    <path class="cls-1" d="M332.63,326.71V250.57H382.2q9.18.84,14.71,4.53t7.54,7.12a24.67,24.67,0,0,1,2.85,8.38,22.19,22.19,0,0,1-1.11,10.82A19.7,19.7,0,0,1,399.5,291q-4.75,3.69-13.61,5.8l5.7,7.28H411.2v22.67H384.31l-24.15-25.15v25.15Zm3.16-3.16H357V298.4h5.12l24.05,25.15H408V307.2h-18.3l-7-8.59v-4.43q10.86-2.22,14.84-5.54a18.09,18.09,0,0,0,5.65-8.12A20.32,20.32,0,0,0,402,264.09q-1.65-2.86-6.67-6.25t-13.13-4.11H335.79Zm23-55.32h21.3a6.1,6.1,0,0,1,3.48,1.66c1.38,1.11,2.18,3.4,2.43,6.88-.14,3.63-.87,5.89-2.19,6.81A6.6,6.6,0,0,1,380.2,285H358.84Zm3.27,3.06v10.76H378.4a5.91,5.91,0,0,0,2.83-.87c1-.58,1.59-2.07,1.66-4.46-.18-2.18-.8-3.63-1.88-4.35a5.17,5.17,0,0,0-2.66-1.08Z" transform="translate(-175.64 -249.99)"/>
    <path class="cls-1" d="M439.15,250.57v45q-.31,7.69,3,10.71t10.23,3.21a14.41,14.41,0,0,0,9.33-3.27q3.75-3.17,3.53-10.65v-45H490v44.66q-.17,9.5-3.14,15.16a30.67,30.67,0,0,1-7.54,9.47,32.63,32.63,0,0,1-11.44,5.91,57.74,57.74,0,0,1-15.32,2.32,66.71,66.71,0,0,1-14.27-1.93,37.06,37.06,0,0,1-12.65-5.56,25.39,25.39,0,0,1-8.33-9.76q-2.94-6-2.93-15.56V250.57Zm-21.62,3.16v41.55q.53,9.39,2.9,14.08a23.9,23.9,0,0,0,7.17,8.28A32.55,32.55,0,0,0,439.15,323a61.34,61.34,0,0,0,13.4,1.95A55.49,55.49,0,0,0,467,322.55a27.31,27.31,0,0,0,17-13.61q2.58-4.69,2.8-13.71v-41.5H468.37V295.6q.31,8-3.48,12.18t-12.55,4.91q-9.18-.31-12.87-4.43T436,295.6V253.73Z" transform="translate(-175.64 -249.99)"/>
    <path class="cls-1" d="M493.15,326.71V250.57h24.79l16.66,31.64,16.56-31.64H576v76.14H551.16V295.07l-15.92,31.64h-1.38l-15.92-31.64v31.64Zm3.17-73v69.82h18.45v-32h4.86l14.76,30.69,15-30.37h4.91v31.64h18.45V253.73H553l-17.46,32.91h-1.9l-17.56-32.91Z" transform="translate(-175.64 -249.99)"/>
    <path class="cls-1" d="M635.8,250.57v22.67H620.45q-13.55-.42-4,7.49,17.09,15,16.77,29.11t-16.77,16.87H576V304h16q14.92.42,3.79-8.33-18.35-16.87-15.6-31t17.29-14.13ZM579.11,307.2v16.35h37.34q13.92-3,13.5-15.19t-18.57-27.63q-8.43-11,9.07-10.65h12.19V253.73H597.46q-11,.21-13.81,11.71t15.08,28.16Q612,306.68,592,307.2Z" transform="translate(-175.64 -249.99)"/>
  </g>
</svg>
