<svg id="Layer_1" data-name="Layer 1" xmlns="http://www.w3.org/2000/svg" viewBox="0 0 624.16 76.17">
  <defs>
    <style>
      .cls-1 {
        fill: #fff;
      }
    </style>
  </defs>
  <title>Wiki</title>
  <g>
    <path class="cls-1" d="M175.64,323.55H219.3q12.66-.32,18.09-2.48a28.82,28.82,0,0,0,9-5.48,31.86,31.86,0,0,0,6.64-9.81q3.06-6.5,3.38-17.14-.42-10.23-1.53-13.24a61.8,61.8,0,0,0-2.85-6.43,27.32,27.32,0,0,0-5.43-7,29,29,0,0,0-10.28-6,43,43,0,0,0-15.77-2.21H175.64v-3.16h44.93a52.75,52.75,0,0,1,16.16,2.26,31.74,31.74,0,0,1,11.76,6.54,33.73,33.73,0,0,1,7.91,11.29q3.19,7,3.19,18a56.75,56.75,0,0,1-3.48,17.93,29.55,29.55,0,0,1-7.7,11.5,33.67,33.67,0,0,1-11.73,6.53q-6.93,2.32-17.38,2.11H175.64Zm0-16.35V270.08h3.16V307.2ZM199.58,268h15.93a16.4,16.4,0,0,1,9,2.19,16.8,16.8,0,0,1,5.62,6.09q2.19,3.9,2.4,12.07-.63,8.93-2.72,12.37a17.85,17.85,0,0,1-5.4,5.67,15.54,15.54,0,0,1-8.76,2.21h-16Zm3.17,3.16.05,34.28h12.81q5.43-.17,8-2.16a14.85,14.85,0,0,0,3.82-4.33q1.29-2.31,1.92-10.6c-.31-4.64-.95-7.95-1.89-9.94a14.37,14.37,0,0,0-4-5.06q-2.61-2.08-7.88-2.19Z" transform="translate(-175.64 -250.57)"/>
    <path class="cls-1" d="M260.12,326.71l25.05-76.14H323l25.47,76.14H319.66L314.86,313H292.24l-4.8,13.71Zm4.43-3.16h20.78l4.9-13.71h27.16l5,13.71h21.78l-23.21-69.82H287.81Zm39.6-57.22L315,297.6H292.5Zm-6.69,28.11H310l-5.8-17Z" transform="translate(-175.64 -250.57)"/>
    <path class="cls-1" d="M412.05,250.57v22.67h-21v53.47H366.27V273.24h-21V250.57Zm-63.6,3.16v16.35h21v53.47H387.9V270.08h21V253.73Z" transform="translate(-175.64 -250.57)"/>
    <path class="cls-1" d="M412.05,326.71l25.05-76.14h37.81l25.47,76.14H471.59L466.79,313H444.16l-4.8,13.71Zm4.43-3.16h20.78l4.9-13.71h27.16l4.95,13.71h21.78l-23.2-69.82H439.73Zm39.6-57.22,10.81,31.27H444.43Zm-6.7,28.11h12.56l-5.81-17Z" transform="translate(-175.64 -250.57)"/>
    <path class="cls-1" d="M500.38,326.71V250.57h51.94q12.49.1,19,4.32T579.22,269q.46,7.61-3.22,11.92t-12.18,7.12v.21a24.71,24.71,0,0,1,7.7,2.24,22.7,22.7,0,0,1,5.93,4.06,17.21,17.21,0,0,1,3.72,5.3,14.14,14.14,0,0,1,1.32,5.8q0,9-4.62,13.66A22.31,22.31,0,0,1,566,325.4a88.28,88.28,0,0,1-17.59,1.31Zm3.16-3.16h44.88a81,81,0,0,0,17.06-1.16q6.88-1.36,10.47-5.51t3.37-11.21a11.14,11.14,0,0,0-1.21-5.16,16,16,0,0,0-3.11-4.22,19.44,19.44,0,0,0-4.91-3.35,45,45,0,0,0-10-3v-3.43q9-2.53,12.73-6.38T576.05,269q-1.15-8.32-6.8-11.73t-16.93-3.56H503.54Zm21.2-55.85h16.93a16.35,16.35,0,0,1,7.94,1.85,5.43,5.43,0,0,1,3,5.27c0,2-1.07,3.68-3.19,5a13.88,13.88,0,0,1-7.73,1.95H524.74Zm0,27.8h20a16,16,0,0,1,9.6,2.26,6.68,6.68,0,0,1,3.32,6.59c.07,2.54-1.15,4.65-3.64,6.33a15.41,15.41,0,0,1-9.28,2.38h-20Zm3.17-24.63v7.75h13.76a17,17,0,0,0,5.67-1.08,4.2,4.2,0,0,0,2.08-2.72,3.1,3.1,0,0,0-1.71-2.87,15.81,15.81,0,0,0-5.94-1.08Zm0,27.79v11.18h16.82q5.53-.1,7.49-1.48a5.42,5.42,0,0,0,2.26-4,4.54,4.54,0,0,0-2.08-4.21q-2.13-1.38-7.67-1.48Z" transform="translate(-175.64 -250.57)"/>
    <path class="cls-1" d="M583.07,326.71l25-76.14h37.82l25.47,76.14H642.6L637.8,313H615.18l-4.8,13.71Zm4.43-3.16h20.77l4.91-13.71h27.16l4.95,13.71h21.78l-23.2-69.82H610.75Zm39.6-57.22,10.81,31.27H615.44Zm-6.7,28.11H633l-5.8-17Z" transform="translate(-175.64 -250.57)"/>
    <path class="cls-1" d="M728.09,250.57v22.67H712.74q-13.56-.42-4,7.49,17.09,15,16.77,29.11t-16.77,16.87h-40.5V304h16q14.93.42,3.8-8.33-18.34-16.87-15.61-31t17.3-14.13ZM671.4,307.2v16.35h37.33q13.92-3,13.5-15.19t-18.56-27.63q-8.45-11,9.07-10.65h12.18V253.73H689.75q-11,.21-13.82,11.71T691,293.6q13.29,13.08-6.75,13.6Z" transform="translate(-175.64 -250.57)"/>
    <path class="cls-1" d="M731.25,326.71V250.57h65.28v22.67H756V282h26.16v13.28H756V304H799.8v22.67Zm3.16-73v69.82h62.23V307.2H752.87v-15H779v-7.07H752.87V270.08h40.5V253.73Z" transform="translate(-175.64 -250.57)"/>
  </g>
</svg>
